<?xml version="1.0" encoding="UTF-8"?>
<svg version="1.1" xmlns="http://www.w3.org/2000/svg" width="145" height="44">
<path d="M0 0 C1.43352212 0.00015908 2.86704998 0.00585132 4.30053711 0.01586914 C5.43041298 0.01799156 5.43041298 0.01799156 6.58311462 0.02015686 C8.99807646 0.02577163 11.41294687 0.03832656 13.82788086 0.05102539 C15.46134307 0.05603849 17.09480672 0.06060173 18.72827148 0.06469727 C22.74067671 0.07574585 26.75301326 0.09302033 30.76538086 0.11352539 C31.26038086 3.08352539 31.26038086 3.08352539 31.76538086 6.11352539 C32.88493164 6.18893555 32.88493164 6.18893555 34.02709961 6.26586914 C37.81798318 7.43936662 38.60091687 9.3035574 40.57788086 12.67602539 C41.18245117 13.68793945 41.78702148 14.69985352 42.40991211 15.74243164 C43.08086914 16.91612305 43.08086914 16.91612305 43.76538086 18.11352539 C44.09538086 14.15352539 44.42538086 10.19352539 44.76538086 6.11352539 C46.08538086 6.11352539 47.40538086 6.11352539 48.76538086 6.11352539 C49.26038086 10.07352539 49.26038086 10.07352539 49.76538086 14.11352539 C50.11600586 13.61852539 50.46663086 13.12352539 50.82788086 12.61352539 C52.76538086 11.11352539 52.76538086 11.11352539 56.20288086 10.61352539 C59.76538086 11.11352539 59.76538086 11.11352539 62.20288086 13.36352539 C63.76538086 16.11352539 63.76538086 16.11352539 63.76538086 20.11352539 C60.13538086 20.11352539 56.50538086 20.11352539 52.76538086 20.11352539 C53.75538086 21.10352539 54.74538086 22.09352539 55.76538086 23.11352539 C56.34288086 22.78352539 56.92038086 22.45352539 57.51538086 22.11352539 C59.76538086 21.11352539 59.76538086 21.11352539 63.76538086 21.11352539 C62.61364731 23.58152586 61.7175452 25.16136105 59.76538086 27.11352539 C56.26200105 27.49432754 54.4025946 27.51597617 51.39038086 25.61352539 C50.85413086 25.11852539 50.31788086 24.62352539 49.76538086 24.11352539 C49.27038086 25.59852539 49.27038086 25.59852539 48.76538086 27.11352539 C46.50366211 26.96118164 46.50366211 26.96118164 43.76538086 26.11352539 C41.74584961 23.60961914 41.74584961 23.60961914 39.95288086 20.55102539 C39.34831055 19.53911133 38.74374023 18.52719727 38.12084961 17.48461914 C37.44989258 16.31092773 37.44989258 16.31092773 36.76538086 15.11352539 C36.43538086 19.07352539 36.10538086 23.03352539 35.76538086 27.11352539 C34.44538086 27.11352539 33.12538086 27.11352539 31.76538086 27.11352539 C31.77698242 28.02875977 31.78858398 28.94399414 31.80053711 29.88696289 C31.80956055 31.07547852 31.81858398 32.26399414 31.82788086 33.48852539 C31.83948242 34.67188477 31.85108398 35.85524414 31.86303711 37.07446289 C31.76538086 40.11352539 31.76538086 40.11352539 30.76538086 42.11352539 C25.94157284 42.13817729 21.11780119 42.15636232 16.29394531 42.16845703 C14.65168621 42.17349713 13.00943163 42.18032917 11.3671875 42.18896484 C9.01162607 42.20104465 6.65612377 42.20675678 4.30053711 42.21118164 C3.5619899 42.21634293 2.82344269 42.22150421 2.06251526 42.2268219 C0.29639998 42.22701789 -1.4695906 42.17547258 -3.23461914 42.11352539 C-5.13085116 40.21729337 -4.3635954 37.4498218 -4.37356567 34.92724609 C-4.37154144 34.06059326 -4.36951721 33.19394043 -4.36743164 32.30102539 C-4.36838837 31.41697021 -4.36934509 30.53291504 -4.37033081 29.62207031 C-4.37101266 27.7491041 -4.36915807 25.87613553 -4.36499023 24.00317383 C-4.35964203 21.12584152 -4.36493507 18.24866531 -4.37133789 15.37133789 C-4.37067711 13.55623338 -4.36939595 11.74112896 -4.36743164 9.92602539 C-4.36945587 9.05937256 -4.3714801 8.19271973 -4.37356567 7.29980469 C-4.34531656 0.15250753 -4.34531656 0.15250753 0 0 Z M-2.23461914 2.11352539 C-2.25752753 7.36463735 -2.27745477 12.61557717 -2.28955078 17.86669922 C-2.29459132 19.6544656 -2.30142368 21.44222784 -2.31005859 23.22998047 C-2.32213644 25.79403707 -2.32785008 28.35803936 -2.33227539 30.92211914 C-2.33743668 31.72628769 -2.34259796 32.53045624 -2.34791565 33.35899353 C-2.34811129 35.27754254 -2.29663897 37.19597907 -2.23461914 39.11352539 C-0.35142646 40.99671807 2.88468223 40.24406824 5.39038086 40.24633789 C6.05247559 40.24729462 6.71457031 40.24825134 7.39672852 40.24923706 C8.79891047 40.24991865 10.20109556 40.24806581 11.60327148 40.24389648 C13.75633799 40.23854785 15.90919588 40.24384209 18.06225586 40.25024414 C19.42163132 40.24958336 20.78100665 40.24830218 22.14038086 40.24633789 C23.38561523 40.24520996 24.63084961 40.24408203 25.91381836 40.24291992 C28.66443517 40.43924666 28.66443517 40.43924666 29.76538086 39.11352539 C29.85396732 36.37458454 29.88061565 33.66099269 29.86303711 30.92211914 C29.86091469 29.69236107 29.86091469 29.69236107 29.85874939 28.4377594 C29.85313375 25.80881157 29.84057865 23.17994766 29.82788086 20.55102539 C29.82286787 18.77303183 29.81830462 16.99503693 29.81420898 15.21704102 C29.80315924 10.84916994 29.78588417 6.48136191 29.76538086 2.11352539 C27.78538086 2.11352539 25.80538086 2.11352539 23.76538086 2.11352539 C24.09538086 2.77352539 24.42538086 3.43352539 24.76538086 4.11352539 C24.56177891 6.18347859 24.34924469 8.25297783 24.08959961 10.31665039 C23.48099325 15.56679685 23.1482557 20.84288665 22.76538086 26.11352539 C19.79538086 27.43352539 16.82538086 28.75352539 13.76538086 30.11352539 C13.43538086 29.12352539 13.10538086 28.13352539 12.76538086 27.11352539 C10.78538086 28.43352539 8.80538086 29.75352539 6.76538086 31.11352539 C7.42538086 32.43352539 8.08538086 33.75352539 8.76538086 35.11352539 C8.76538086 33.79352539 8.76538086 32.47352539 8.76538086 31.11352539 C9.42538086 31.11352539 10.08538086 31.11352539 10.76538086 31.11352539 C10.76538086 33.75352539 10.76538086 36.39352539 10.76538086 39.11352539 C9.44538086 38.45352539 8.12538086 37.79352539 6.76538086 37.11352539 C6.76538086 37.77352539 6.76538086 38.43352539 6.76538086 39.11352539 C6.10538086 39.11352539 5.44538086 39.11352539 4.76538086 39.11352539 C4.76538086 36.80352539 4.76538086 34.49352539 4.76538086 32.11352539 C3.77538086 31.78352539 2.78538086 31.45352539 1.76538086 31.11352539 C2.11600586 30.32977539 2.46663086 29.54602539 2.82788086 28.73852539 C3.13725586 27.87227539 3.44663086 27.00602539 3.76538086 26.11352539 C3.43538086 25.45352539 3.10538086 24.79352539 2.76538086 24.11352539 C3.47694336 22.65946289 3.47694336 22.65946289 4.20288086 21.17602539 C6.46981345 16.31242456 6.02188869 11.3671857 5.76538086 6.11352539 C7.68595378 6.24373372 9.60652669 6.37394206 11.52709961 6.50415039 C14.52097499 6.16661566 14.52097499 6.16661566 18.76538086 2.11352539 C11.83538086 2.11352539 4.90538086 2.11352539 -2.23461914 2.11352539 Z M17.57788086 5.05102539 C16.97975586 5.40165039 16.38163086 5.75227539 15.76538086 6.11352539 C16.09538086 7.43352539 16.42538086 8.75352539 16.76538086 10.11352539 C17.75538086 10.11352539 18.74538086 10.11352539 19.76538086 10.11352539 C19.76538086 11.10352539 19.76538086 12.09352539 19.76538086 13.11352539 C20.75538086 12.78352539 21.74538086 12.45352539 22.76538086 12.11352539 C22.76538086 9.80352539 22.76538086 7.49352539 22.76538086 5.11352539 C19.87351299 3.78047841 19.87351299 3.78047841 17.57788086 5.05102539 Z M6.76538086 7.11352539 C7.09538086 11.73352539 7.42538086 16.35352539 7.76538086 21.11352539 C8.42538086 20.78352539 9.08538086 20.45352539 9.76538086 20.11352539 C9.76538086 16.81352539 9.76538086 13.51352539 9.76538086 10.11352539 C11.41538086 10.11352539 13.06538086 10.11352539 14.76538086 10.11352539 C14.76538086 9.45352539 14.76538086 8.79352539 14.76538086 8.11352539 C12.12538086 7.78352539 9.48538086 7.45352539 6.76538086 7.11352539 Z M11.76538086 12.11352539 C11.76538086 16.07352539 11.76538086 20.03352539 11.76538086 24.11352539 C16.34957716 22.66063553 16.34957716 22.66063553 17.76538086 21.11352539 C17.8371805 19.59424501 17.84930093 18.07185057 17.82788086 16.55102539 C17.81885742 15.72473633 17.80983398 14.89844727 17.80053711 14.04711914 C17.78893555 13.4090332 17.77733398 12.77094727 17.76538086 12.11352539 C15.78538086 12.11352539 13.80538086 12.11352539 11.76538086 12.11352539 Z M54.76538086 14.11352539 C53.77538086 15.59852539 53.77538086 15.59852539 52.76538086 17.11352539 C55.07538086 17.11352539 57.38538086 17.11352539 59.76538086 17.11352539 C59.10538086 16.12352539 58.44538086 15.13352539 57.76538086 14.11352539 C56.77538086 14.11352539 55.78538086 14.11352539 54.76538086 14.11352539 Z M19.76538086 15.11352539 C20.76538086 17.11352539 20.76538086 17.11352539 20.76538086 17.11352539 Z M20.76538086 19.11352539 C18.07144565 21.89618753 18.07144565 21.89618753 15.76538086 25.11352539 C16.09538086 26.10352539 16.42538086 27.09352539 16.76538086 28.11352539 C19.37481144 27.04894019 19.37481144 27.04894019 21.76538086 25.11352539 C22.18284694 21.9871733 22.18284694 21.9871733 21.76538086 19.11352539 C21.43538086 19.11352539 21.10538086 19.11352539 20.76538086 19.11352539 Z M4.76538086 21.11352539 C5.0321429 23.09844181 5.0321429 23.09844181 5.76538086 25.11352539 C6.75538086 25.44352539 7.74538086 25.77352539 8.76538086 26.11352539 C9.09538086 25.12352539 9.42538086 24.13352539 9.76538086 23.11352539 C7.29038086 22.12352539 7.29038086 22.12352539 4.76538086 21.11352539 Z " fill="#0093DD" transform="translate(4.234619140625,0.886474609375)"/>
<path d="M0 0 C0.66 1.32 1.32 2.64 2 4 C2.94875 3.835 3.8975 3.67 4.875 3.5 C13.64478065 2.0968351 23.10918527 3 32 3 C32 5.31 32 7.62 32 10 C32.66 9.67 33.32 9.34 34 9 C34.65772428 5.97065509 34.65772428 5.97065509 35 3 C35.99 3 36.98 3 38 3 C38 2.34 38 1.68 38 1 C38.99 0.67 39.98 0.34 41 0 C41.495 1.485 41.495 1.485 42 3 C42.78375 3 43.5675 3 44.375 3 C47.91666667 3 51.45833333 3 55 3 C55 3.99 55 4.98 55 6 C54.01 6 53.02 6 52 6 C52 7.98 52 9.96 52 12 C44 12 36 12 28 12 C27.67 12.33 27.34 12.66 27 13 C27.67579102 13 28.35158203 13 29.04785156 13 C37.36523438 13 45.68261719 13 54 13 C54 14.98 54 16.96 54 19 C40.8 19 27.6 19 14 19 C14 17.02 14 15.04 14 13 C15.65 13 17.3 13 19 13 C18.67 10.69 18.34 8.38 18 6 C17.67 7.98 17.34 9.96 17 12 C16.01 12 15.02 12 14 12 C14 10.02 14 8.04 14 6 C13.67 7.98 13.34 9.96 13 12 C12.360625 11.814375 11.72125 11.62875 11.0625 11.4375 C10.0415625 11.2209375 10.0415625 11.2209375 9 11 C8.67 11.33 8.34 11.66 8 12 C6.33391013 12.04384447 4.66619446 12.0396713 3 12 C-0.00346023 11.95847726 -0.00346023 11.95847726 -3 12.25 C-6 12 -6 12 -7.9375 10.375 C-9.37504343 7.16166762 -9.01373739 5.33085144 -8 2 C-4.77208445 -0.1519437 -3.71599191 -0.20086443 0 0 Z M-5 3 C-5.33 4.65 -5.66 6.3 -6 8 C-4.02 8.99 -4.02 8.99 -2 10 C0.0399719 8.63676257 0.0399719 8.63676257 2 7 C2 6.34 2 5.68 2 5 C1.01 5 0.02 5 -1 5 C-1 4.34 -1 3.68 -1 3 C-2.32 3 -3.64 3 -5 3 Z M5 5 C4.67 6.32 4.34 7.64 4 9 C4.99 9.33 5.98 9.66 7 10 C6.67 8.35 6.34 6.7 6 5 C5.67 5 5.34 5 5 5 Z M25 5 C24.67 6.32 24.34 7.64 24 9 C24.99 9.33 25.98 9.66 27 10 C27 8.35 27 6.7 27 5 C26.34 5 25.68 5 25 5 Z M40 5 C40 6.65 40 8.3 40 10 C40.33 10 40.66 10 41 10 C41 8.35 41 6.7 41 5 C40.67 5 40.34 5 40 5 Z M16 15 C17 17 17 17 17 17 Z M24 15 C25 17 25 17 25 17 Z M31 15 C31 15.66 31 16.32 31 17 C31.99 16.67 32.98 16.34 34 16 C33.01 15.67 32.02 15.34 31 15 Z M37 15 C37.66 15.66 38.32 16.32 39 17 C39 16.34 39 15.68 39 15 C38.34 15 37.68 15 37 15 Z M46 15 C47 17 47 17 47 17 Z " fill="#000000" transform="translate(89,16)"/>
<path d="M0 0 C10.66666667 0 21.33333333 0 32 0 C32 1.98 32 3.96 32 6 C20.66666667 6 9.33333333 6 -2 6 C-1.34 4.02 -0.68 2.04 0 0 Z M4 2 C4 2.66 4 3.32 4 4 C4.66 4 5.32 4 6 4 C6 3.34 6 2.68 6 2 C5.34 2 4.68 2 4 2 Z M16 2 C17 4 17 4 17 4 Z M24 2 C25 4 25 4 25 4 Z " fill="#000000" transform="translate(57,29)"/>
<path d="M0 0 C4.75 0.75 4.75 0.75 7 3 C7.66 2.01 8.32 1.02 9 0 C11.625 -0.1875 11.625 -0.1875 14 0 C14 0.66 14 1.32 14 2 C13.34 2 12.68 2 12 2 C10.62371701 5.2304854 10.62371701 5.2304854 10 9 C11.76440022 11.83132801 11.76440022 11.83132801 14 14 C14 14.66 14 15.32 14 16 C10.31245243 15.50168276 8.39509338 14.89932357 6 12 C5.5875 12.66 5.175 13.32 4.75 14 C4.1725 14.66 3.595 15.32 3 16 C1.68 16 0.36 16 -1 16 C-0.71125 15.443125 -0.4225 14.88625 -0.125 14.3125 C0.24625 13.549375 0.6175 12.78625 1 12 C1.433125 11.195625 1.86625 10.39125 2.3125 9.5625 C3.3317827 6.9077052 3.3317827 6.9077052 1.625 4.3125 C0.820625 3.1678125 0.820625 3.1678125 0 2 C0 1.34 0 0.68 0 0 Z " fill="#0095DF" transform="translate(67,12)"/>
<path d="M0 0 C4 0 8 0 12 0 C11.79375 0.763125 11.5875 1.52625 11.375 2.3125 C10.66608797 5.21885944 10.66608797 5.21885944 13 8 C8.71 8 4.42 8 0 8 C0 5.36 0 2.72 0 0 Z M6 2 C5.67 2.99 5.34 3.98 5 5 C4.01 5.33 3.02 5.66 2 6 C3.65 6 5.3 6 7 6 C7.33 5.34 7.66 4.68 8 4 C7.34 3.34 6.68 2.68 6 2 Z " fill="#0094DD" transform="translate(16,32)"/>
<path d="M0 0 C3.3 0 6.6 0 10 0 C10.66 1.98 11.32 3.96 12 6 C8.33333333 6 4.66666667 6 1 6 C0.67 4.02 0.34 2.04 0 0 Z " fill="#000000" transform="translate(90,29)"/>
</svg>
